<svg width="263" height="200" viewBox="0 0 263 200" fill="none" xmlns="http://www.w3.org/2000/svg">
<circle cx="132" cy="100" r="99" stroke="black" stroke-width="2"/>
<rect y="58" width="263" height="77" fill="white"/>
<path d="M19.25 79.2H30.55C39.2167 79.2 43.55 83 43.55 90.6C43.55 94.4333 42.4667 97.3667 40.3 99.4C38.1667 101.4 35.0333 102.4 30.9 102.4H23.65V114H19.25V79.2ZM30.75 98.3C33.6167 98.3 35.6667 97.7167 36.9 96.55C38.1667 95.3833 38.8 93.4667 38.8 90.8C38.8 88.1333 38.1667 86.2333 36.9 85.1C35.6667 83.9667 33.55 83.4 30.55 83.4H23.65V98.3H30.75ZM62.0078 114.6C58.2078 114.6 55.2411 113.367 53.1078 110.9C50.9745 108.4 49.9078 105.083 49.9078 100.95C49.9078 96.8167 50.9745 93.5167 53.1078 91.05C55.2411 88.55 58.2078 87.3 62.0078 87.3C65.8078 87.3 68.7745 88.55 70.9078 91.05C73.0411 93.5167 74.1078 96.8167 74.1078 100.95C74.1078 105.083 73.0411 108.4 70.9078 110.9C68.7745 113.367 65.8078 114.6 62.0078 114.6ZM62.0078 110.8C64.4411 110.8 66.2745 109.9 67.5078 108.1C68.7411 106.3 69.3578 103.917 69.3578 100.95C69.3578 97.9833 68.7411 95.6 67.5078 93.8C66.2745 92 64.4411 91.1 62.0078 91.1C59.5745 91.1 57.7411 92 56.5078 93.8C55.3078 95.6 54.7078 97.9833 54.7078 100.95C54.7078 103.917 55.3078 106.3 56.5078 108.1C57.7411 109.9 59.5745 110.8 62.0078 110.8ZM92.0402 101.8L87.9402 106.4V114H83.5402V76.3H87.9402V100.65L99.3402 87.9H104.54L94.9902 98.55L105.14 114H99.7402L92.0402 101.8ZM132.618 102.4H114.118C114.384 104.967 115.234 107.017 116.668 108.55C118.134 110.05 120.118 110.8 122.618 110.8C124.118 110.8 125.568 110.5 126.968 109.9C128.401 109.267 129.851 108.35 131.318 107.15H131.518V111.55C130.051 112.617 128.601 113.4 127.168 113.9C125.734 114.367 124.201 114.6 122.568 114.6C119.901 114.6 117.584 114.017 115.618 112.85C113.651 111.683 112.134 110.067 111.068 108C110.034 105.9 109.518 103.5 109.518 100.8C109.518 98.2333 109.984 95.9333 110.918 93.9C111.884 91.8333 113.251 90.2167 115.018 89.05C116.784 87.8833 118.851 87.3 121.218 87.3C123.618 87.3 125.668 87.9 127.368 89.1C129.101 90.2667 130.401 91.8833 131.268 93.95C132.168 96.0167 132.618 98.35 132.618 100.95V102.4ZM121.268 90.95C119.201 90.95 117.551 91.7 116.318 93.2C115.084 94.7 114.351 96.6333 114.118 99H128.068C127.834 96.5667 127.151 94.6167 126.018 93.15C124.918 91.6833 123.334 90.95 121.268 90.95ZM162.198 114L155.148 100.35H154.648H146.648V114H142.248V79.2H154.048C158.215 79.2 161.315 80.0833 163.348 81.85C165.381 83.5833 166.398 86.1333 166.398 89.5C166.398 92 165.848 94.1167 164.748 95.85C163.648 97.5833 162.031 98.8167 159.898 99.55L167.498 114H162.198ZM154.098 96.2C156.698 96.2 158.598 95.7 159.798 94.7C161.031 93.6667 161.648 91.9333 161.648 89.5C161.648 87.2667 161.031 85.7 159.798 84.8C158.598 83.8667 156.681 83.4 154.048 83.4H146.648V96.2H154.098ZM193.958 114L193.258 110.35C191.724 111.783 190.241 112.85 188.808 113.55C187.408 114.25 185.758 114.6 183.858 114.6C181.491 114.6 179.641 113.817 178.308 112.25C177.008 110.683 176.358 108.6 176.358 106V87.9H180.758V105.4C180.758 107 181.124 108.283 181.858 109.25C182.591 110.183 183.641 110.65 185.008 110.65C186.574 110.65 187.941 110.367 189.108 109.8C190.308 109.233 191.558 108.383 192.858 107.25V87.9H197.258V108.2L198.358 114H193.958ZM220.54 87.3C222.807 87.3 224.74 87.9 226.34 89.1C227.94 90.3 229.14 91.9333 229.94 94C230.774 96.0667 231.19 98.4 231.19 101C231.19 103.6 230.707 105.933 229.74 108C228.807 110.033 227.44 111.633 225.64 112.8C223.874 113.967 221.774 114.55 219.34 114.55C218.107 114.55 216.957 114.417 215.89 114.15C214.824 113.883 213.69 113.5 212.49 113V114H208.09V76.3H212.49V90.7C214.657 88.4333 217.34 87.3 220.54 87.3ZM218.89 110.65C221.29 110.65 223.14 109.75 224.44 107.95C225.774 106.15 226.44 103.833 226.44 101C226.44 98.1667 225.924 95.85 224.89 94.05C223.89 92.25 222.307 91.35 220.14 91.35C218.607 91.35 217.224 91.6667 215.99 92.3C214.79 92.9333 213.624 93.8667 212.49 95.1V109.65C214.657 110.317 216.79 110.65 218.89 110.65ZM261.623 87.9L246.673 125.6H242.173L246.673 114.3L236.323 87.9H240.823L248.973 109.3L256.923 87.9H261.623Z" fill="black"/>
</svg>
