<svg width="263" height="200" viewBox="0 0 263 200" fill="none" xmlns="http://www.w3.org/2000/svg">
<circle cx="132" cy="100" r="99" stroke="black" stroke-width="2"/>
<rect x="32" y="58" width="200" height="77" fill="white"/>
<path d="M13.25 79.2H24.55C33.2167 79.2 37.55 83 37.55 90.6C37.55 94.4333 36.4667 97.3667 34.3 99.4C32.1667 101.4 29.0333 102.4 24.9 102.4H17.65V114H13.25V79.2ZM24.75 98.3C27.6167 98.3 29.6667 97.7167 30.9 96.55C32.1667 95.3833 32.8 93.4667 32.8 90.8C32.8 88.1333 32.1667 86.2333 30.9 85.1C29.6667 83.9667 27.55 83.4 24.55 83.4H17.65V98.3H24.75ZM56.0078 114.6C52.2078 114.6 49.2411 113.367 47.1078 110.9C44.9745 108.4 43.9078 105.083 43.9078 100.95C43.9078 96.8167 44.9745 93.5167 47.1078 91.05C49.2411 88.55 52.2078 87.3 56.0078 87.3C59.8078 87.3 62.7745 88.55 64.9078 91.05C67.0411 93.5167 68.1078 96.8167 68.1078 100.95C68.1078 105.083 67.0411 108.4 64.9078 110.9C62.7745 113.367 59.8078 114.6 56.0078 114.6ZM56.0078 110.8C58.4411 110.8 60.2745 109.9 61.5078 108.1C62.7411 106.3 63.3578 103.917 63.3578 100.95C63.3578 97.9833 62.7411 95.6 61.5078 93.8C60.2745 92 58.4411 91.1 56.0078 91.1C53.5745 91.1 51.7411 92 50.5078 93.8C49.3078 95.6 48.7078 97.9833 48.7078 100.95C48.7078 103.917 49.3078 106.3 50.5078 108.1C51.7411 109.9 53.5745 110.8 56.0078 110.8ZM86.0402 101.8L81.9402 106.4V114H77.5402V76.3H81.9402V100.65L93.3402 87.9H98.5402L88.9902 98.55L99.1402 114H93.7402L86.0402 101.8ZM126.618 102.4H108.118C108.384 104.967 109.234 107.017 110.668 108.55C112.134 110.05 114.118 110.8 116.618 110.8C118.118 110.8 119.568 110.5 120.968 109.9C122.401 109.267 123.851 108.35 125.318 107.15H125.518V111.55C124.051 112.617 122.601 113.4 121.168 113.9C119.734 114.367 118.201 114.6 116.568 114.6C113.901 114.6 111.584 114.017 109.618 112.85C107.651 111.683 106.134 110.067 105.068 108C104.034 105.9 103.518 103.5 103.518 100.8C103.518 98.2333 103.984 95.9333 104.918 93.9C105.884 91.8333 107.251 90.2167 109.018 89.05C110.784 87.8833 112.851 87.3 115.218 87.3C117.618 87.3 119.668 87.9 121.368 89.1C123.101 90.2667 124.401 91.8833 125.268 93.95C126.168 96.0167 126.618 98.35 126.618 100.95V102.4ZM115.268 90.95C113.201 90.95 111.551 91.7 110.318 93.2C109.084 94.7 108.351 96.6333 108.118 99H122.068C121.834 96.5667 121.151 94.6167 120.018 93.15C118.918 91.6833 117.334 90.95 115.268 90.95ZM156.198 114L149.148 100.35H148.648H140.648V114H136.248V79.2H148.048C152.215 79.2 155.315 80.0833 157.348 81.85C159.381 83.5833 160.398 86.1333 160.398 89.5C160.398 92 159.848 94.1167 158.748 95.85C157.648 97.5833 156.031 98.8167 153.898 99.55L161.498 114H156.198ZM148.098 96.2C150.698 96.2 152.598 95.7 153.798 94.7C155.031 93.6667 155.648 91.9333 155.648 89.5C155.648 87.2667 155.031 85.7 153.798 84.8C152.598 83.8667 150.681 83.4 148.048 83.4H140.648V96.2H148.098ZM187.958 114L187.258 110.35C185.724 111.783 184.241 112.85 182.808 113.55C181.408 114.25 179.758 114.6 177.858 114.6C175.491 114.6 173.641 113.817 172.308 112.25C171.008 110.683 170.358 108.6 170.358 106V87.9H174.758V105.4C174.758 107 175.124 108.283 175.858 109.25C176.591 110.183 177.641 110.65 179.008 110.65C180.574 110.65 181.941 110.367 183.108 109.8C184.308 109.233 185.558 108.383 186.858 107.25V87.9H191.258V108.2L192.358 114H187.958ZM214.54 87.3C216.807 87.3 218.74 87.9 220.34 89.1C221.94 90.3 223.14 91.9333 223.94 94C224.774 96.0667 225.19 98.4 225.19 101C225.19 103.6 224.707 105.933 223.74 108C222.807 110.033 221.44 111.633 219.64 112.8C217.874 113.967 215.774 114.55 213.34 114.55C212.107 114.55 210.957 114.417 209.89 114.15C208.824 113.883 207.69 113.5 206.49 113V114H202.09V76.3H206.49V90.7C208.657 88.4333 211.34 87.3 214.54 87.3ZM212.89 110.65C215.29 110.65 217.14 109.75 218.44 107.95C219.774 106.15 220.44 103.833 220.44 101C220.44 98.1667 219.924 95.85 218.89 94.05C217.89 92.25 216.307 91.35 214.14 91.35C212.607 91.35 211.224 91.6667 209.99 92.3C208.79 92.9333 207.624 93.8667 206.49 95.1V109.65C208.657 110.317 210.79 110.65 212.89 110.65ZM255.623 87.9L240.673 125.6H236.173L240.673 114.3L230.323 87.9H234.823L242.973 109.3L250.923 87.9H255.623Z" fill="black"/>
</svg>
